<svg width="37" height="29" viewBox="0 0 37 29" fill="none" xmlns="http://www.w3.org/2000/svg">
<path d="M34.989 2.04733V0.80455C34.989 0.361028 34.6282 0.000280532 34.1847 0.000280532L24.5326 0C21.2072 0 19.2045 1.31711 18.5001 1.88072C17.7956 1.31713 15.7929 0 12.4675 0H2.81541C2.37189 0 2.01114 0.360762 2.01114 0.804269V2.04705C0.871633 2.23977 0 3.23058 0 4.42402V24.5325C0 25.8631 1.08227 26.9457 2.41317 26.9457H12.4674C15.2307 26.9457 16.9927 27.9195 17.7973 28.4999C18.0074 28.6514 18.2537 28.7271 18.5 28.7271C18.7463 28.7271 18.9926 28.6514 19.2027 28.4996C20.0073 27.9192 21.7693 26.9457 24.5326 26.9457H34.5868C35.9174 26.9457 37 25.8634 37 24.5325V4.42403C37 3.23066 36.1284 2.23981 34.9891 2.04734L34.989 2.04733ZM34.1844 0.80455V24.1304L24.5323 24.1302C21.7113 24.1302 19.8376 25.0848 18.9021 25.7169V2.5935C19.3706 2.19963 21.2616 0.804269 24.5323 0.804269L34.1844 0.80455ZM2.81512 0.80455H12.4672C15.7391 0.80455 17.6301 2.20073 18.0975 2.59378V25.7186C17.1655 25.0863 15.2907 24.1299 12.4672 24.1299H2.81512V0.80455ZM36.1953 24.5326C36.1953 25.4197 35.4737 26.1411 34.5867 26.1411H24.5325C21.5431 26.1411 19.6153 27.21 18.7322 27.8474C18.5913 27.9492 18.4084 27.9492 18.2676 27.8474C17.3845 27.21 15.4566 26.1411 12.4673 26.1411H2.41304C1.52596 26.1411 0.804498 25.4196 0.804498 24.5326V4.42408C0.804498 3.67677 1.31928 3.05225 2.01108 2.8725L2.0108 24.1301C2.0108 24.5736 2.37156 24.9343 2.81507 24.9343H12.4672C15.5224 24.9343 17.3521 26.1269 17.9967 26.6397C18.1448 26.7575 18.3224 26.8161 18.4997 26.8161C18.677 26.8161 18.8546 26.7575 19.0027 26.6397C19.6476 26.1272 21.4773 24.9346 24.5325 24.9346H34.1846C34.6282 24.9346 34.9889 24.5739 34.9889 24.1304L34.9892 2.87206C35.681 3.05189 36.1958 3.67633 36.1958 4.42365L36.1953 24.5326Z" fill="#1E1E1E"/>
<path d="M6.8365 8.84762H14.0756C14.5191 8.84762 14.8798 8.48686 14.8798 8.04335V4.82591C14.8798 4.38239 14.5191 4.02164 14.0756 4.02164L6.8365 4.02136C6.39297 4.02136 6.03223 4.38212 6.03223 4.82563V8.04307C6.03195 8.48687 6.39271 8.84762 6.8365 8.84762V8.84762ZM6.8365 4.82591H14.0756L14.0761 8.04335L6.83634 8.04307L6.8365 4.82591Z" fill="#1E1E1E"/>
<path d="M6.43451 12.8693H14.4779C14.7001 12.8693 14.8802 12.6892 14.8802 12.467C14.8802 12.2449 14.7001 12.0648 14.4779 12.0648H6.43451C6.21233 12.0648 6.03223 12.2449 6.03223 12.467C6.03223 12.6892 6.21233 12.8693 6.43451 12.8693Z" fill="#1E1E1E"/>
<path d="M6.43451 16.891H14.4779C14.7001 16.891 14.8802 16.7109 14.8802 16.4887C14.8802 16.2665 14.7001 16.0864 14.4779 16.0864H6.43451C6.21233 16.0864 6.03223 16.2665 6.03223 16.4887C6.03223 16.7109 6.21233 16.891 6.43451 16.891Z" fill="#1E1E1E"/>
<path d="M14.8802 20.5106C14.8802 20.2884 14.7001 20.1083 14.4779 20.1083H6.43451C6.21233 20.1083 6.03223 20.2884 6.03223 20.5106C6.03223 20.7327 6.21233 20.9128 6.43451 20.9128H14.4779C14.7001 20.9128 14.8802 20.7327 14.8802 20.5106Z" fill="#1E1E1E"/>
<path d="M22.5214 4.82587H30.5648C30.787 4.82587 30.9671 4.64577 30.9671 4.42359C30.9671 4.2014 30.787 4.0213 30.5648 4.0213H22.5214C22.2992 4.0213 22.1191 4.2014 22.1191 4.42359C22.1191 4.64577 22.2992 4.82587 22.5214 4.82587Z" fill="#1E1E1E"/>
<path d="M22.5214 16.891H30.5648C30.787 16.891 30.9671 16.7109 30.9671 16.4887C30.9671 16.2665 30.787 16.0864 30.5648 16.0864H22.5214C22.2992 16.0864 22.1191 16.2665 22.1191 16.4887C22.1191 16.7109 22.2992 16.891 22.5214 16.891Z" fill="#1E1E1E"/>
<path d="M30.5648 20.1084H22.5214C22.2992 20.1084 22.1191 20.2885 22.1191 20.5107C22.1191 20.7329 22.2992 20.913 22.5214 20.913H30.5648C30.787 20.913 30.9671 20.7329 30.9671 20.5107C30.9671 20.2885 30.787 20.1084 30.5648 20.1084Z" fill="#1E1E1E"/>
<path d="M22.5214 12.8693H30.5648C30.787 12.8693 30.9671 12.6892 30.9671 12.467C30.9671 12.2449 30.787 12.0648 30.5648 12.0648H22.5214C22.2992 12.0648 22.1191 12.2449 22.1191 12.467C22.1191 12.6892 22.2992 12.8693 22.5214 12.8693Z" fill="#1E1E1E"/>
<path d="M22.5214 8.8476H30.5648C30.787 8.8476 30.9671 8.6675 30.9671 8.44531C30.9671 8.22313 30.787 8.04303 30.5648 8.04303H22.5214C22.2992 8.04303 22.1191 8.22313 22.1191 8.44531C22.1191 8.6675 22.2992 8.8476 22.5214 8.8476Z" fill="#1E1E1E"/>
</svg>
